<?xml version="1.0" encoding="utf-8"?>
<!-- Generator: Adobe Illustrator 24.1.0, SVG Export Plug-In . SVG Version: 6.00 Build 0)  -->
<svg version="1.1" xmlns="http://www.w3.org/2000/svg" xmlns:xlink="http://www.w3.org/1999/xlink" x="0px" y="0px"
	 viewBox="0 0 251.7 85.44" style="enable-background:new 0 0 251.7 85.44;" xml:space="preserve">
<style type="text/css">
	.st0{fill:#001018;}
	.st1{fill:url(#SVGID_1_);}
	.st2{fill:url(#SVGID_2_);}
	.st3{fill:url(#SVGID_3_);}
	.st4{fill:url(#SVGID_4_);}
	.st5{fill:url(#SVGID_5_);}
	.st6{fill:url(#SVGID_6_);}
	.st7{fill:url(#SVGID_7_);}
	.st8{fill:url(#SVGID_8_);}
	.st9{fill:#00C7FA;}
	.st10{fill:#00CFD8;}
	.st11{fill:#00F2FE;}
	.st12{fill:url(#SVGID_9_);}
	.st13{fill:url(#SVGID_10_);}
	.st14{fill:url(#SVGID_11_);}
	.st15{fill:url(#SVGID_12_);}
	.st16{enable-background:new    ;}
</style>
<g id="Layer_1">
</g>
<g id="Layer_2">
	<g>
		<g>
			
				<linearGradient id="SVGID_1_" gradientUnits="userSpaceOnUse" x1="30.9172" y1="619.6521" x2="21.8115" y2="616.7684" gradientTransform="matrix(1 0 0 -1 0 660)">
				<stop  offset="0" style="stop-color:#009DD2"/>
				<stop  offset="1" style="stop-color:#00F2FE"/>
			</linearGradient>
			<path class="st1" d="M30.85,68.48V13H19.96c-2.2,0-3.96,1.78-3.96,3.96v55.48h10.89C29.07,72.44,30.85,70.66,30.85,68.48z"/>
			
				<linearGradient id="SVGID_2_" gradientUnits="userSpaceOnUse" x1="1184.8625" y1="619.6528" x2="1177.5533" y2="617.3381" gradientTransform="matrix(-1 0 0 -1 1245.3579 660)">
				<stop  offset="0" style="stop-color:#009DD2"/>
				<stop  offset="1" style="stop-color:#00F2FE"/>
			</linearGradient>
			<path class="st2" d="M60.56,68.48V13h10.89c2.2,0,3.96,1.78,3.96,3.96v55.48H64.53C62.34,72.44,60.56,70.66,60.56,68.48z"/>
			
				<linearGradient id="SVGID_3_" gradientUnits="userSpaceOnUse" x1="43.1289" y1="618.4878" x2="18.1232" y2="626.0843" gradientTransform="matrix(1 -8.242935e-04 -8.242935e-04 -1 0.8786 659.5006)">
				<stop  offset="0" style="stop-color:#009DD2"/>
				<stop  offset="0.591" style="stop-color:#00F2FE"/>
			</linearGradient>
			<path class="st3" d="M51.91,65.33l-12.43,0.01c-0.88,0-1.67-0.59-1.91-1.44l-6.73-23.18l-8.04-27.7L35.28,13
				c1.77,0,3.32,1.17,3.83,2.87l6.6,22.73l7.33,25.25C53.24,64.6,52.7,65.33,51.91,65.33z"/>
			
				<linearGradient id="SVGID_4_" gradientUnits="userSpaceOnUse" x1="1191.9149" y1="597.8752" x2="1191.9149" y2="624.3981" gradientTransform="matrix(-1 0 0 -1 1245.3579 660)">
				<stop  offset="0" style="stop-color:#009DD2"/>
				<stop  offset="0.9429" style="stop-color:#00F2FE"/>
			</linearGradient>
			<path class="st4" d="M39.35,65.34h12.57c0.9,0,1.68-0.59,1.93-1.46l6.71-23.17L68.58,13H54.6c-0.88,0-1.67,0.59-1.91,1.43
				L45.7,38.61l-7.36,25.41C38.16,64.68,38.67,65.34,39.35,65.34z"/>
		</g>
		<g>
			<path class="st11" d="M118.38,56.3c0,0.57-0.09,1.08-0.27,1.55s-0.43,0.86-0.76,1.19c-0.33,0.33-0.72,0.59-1.18,0.77
				c-0.46,0.18-0.96,0.27-1.52,0.27h-2.83v-7.56h2.83c0.56,0,1.06,0.09,1.52,0.27c0.46,0.18,0.85,0.44,1.18,0.77
				c0.33,0.33,0.58,0.73,0.76,1.2S118.38,55.74,118.38,56.3z M117.33,56.3c0-0.46-0.06-0.88-0.19-1.25
				c-0.13-0.37-0.31-0.68-0.54-0.93c-0.23-0.25-0.51-0.45-0.84-0.58c-0.33-0.13-0.7-0.2-1.1-0.2h-1.8v5.91h1.8
				c0.4,0,0.77-0.07,1.1-0.2c0.33-0.13,0.61-0.33,0.84-0.58c0.23-0.25,0.41-0.56,0.54-0.93C117.27,57.18,117.33,56.77,117.33,56.3z"
				/>
			<path class="st11" d="M121.33,54.65c0.32,0,0.62,0.05,0.89,0.16c0.27,0.11,0.5,0.26,0.7,0.46c0.2,0.2,0.35,0.45,0.46,0.75
				c0.11,0.3,0.17,0.64,0.17,1.02c0,0.15-0.02,0.25-0.05,0.3c-0.03,0.05-0.09,0.07-0.18,0.07h-3.56c0.01,0.34,0.05,0.63,0.14,0.88
				c0.08,0.25,0.2,0.46,0.35,0.63c0.15,0.17,0.32,0.29,0.53,0.37c0.2,0.08,0.43,0.12,0.69,0.12c0.24,0,0.44-0.03,0.61-0.08
				c0.17-0.05,0.32-0.11,0.44-0.18c0.12-0.06,0.23-0.12,0.31-0.18s0.15-0.08,0.21-0.08c0.08,0,0.14,0.03,0.18,0.09l0.26,0.34
				c-0.12,0.14-0.26,0.26-0.42,0.37c-0.16,0.1-0.34,0.19-0.52,0.26c-0.18,0.07-0.38,0.12-0.57,0.15c-0.2,0.03-0.39,0.05-0.59,0.05
				c-0.37,0-0.71-0.06-1.02-0.19c-0.31-0.12-0.58-0.31-0.81-0.55c-0.23-0.24-0.4-0.54-0.53-0.89c-0.13-0.36-0.19-0.76-0.19-1.22
				c0-0.37,0.06-0.72,0.17-1.05c0.11-0.32,0.28-0.6,0.49-0.84c0.21-0.24,0.48-0.42,0.79-0.56C120.6,54.72,120.94,54.65,121.33,54.65
				z M121.35,55.34c-0.45,0-0.81,0.13-1.07,0.39c-0.26,0.26-0.42,0.63-0.49,1.09h2.91c0-0.22-0.03-0.42-0.09-0.6
				c-0.06-0.18-0.15-0.34-0.26-0.47c-0.12-0.13-0.26-0.23-0.42-0.31C121.76,55.38,121.57,55.34,121.35,55.34z"/>
			<path class="st11" d="M127.4,55.62c-0.04,0.08-0.11,0.12-0.2,0.12c-0.05,0-0.11-0.02-0.18-0.06c-0.07-0.04-0.15-0.08-0.25-0.13
				c-0.1-0.05-0.21-0.09-0.35-0.13c-0.13-0.04-0.29-0.06-0.48-0.06c-0.16,0-0.3,0.02-0.43,0.06c-0.13,0.04-0.23,0.1-0.32,0.17
				c-0.09,0.07-0.16,0.15-0.21,0.25c-0.05,0.09-0.07,0.19-0.07,0.3c0,0.14,0.04,0.25,0.12,0.34c0.08,0.09,0.18,0.17,0.31,0.24
				c0.13,0.07,0.28,0.13,0.44,0.18c0.17,0.05,0.34,0.11,0.51,0.16c0.17,0.06,0.34,0.12,0.51,0.19c0.17,0.07,0.31,0.16,0.44,0.26
				c0.13,0.11,0.23,0.23,0.31,0.39c0.08,0.15,0.12,0.34,0.12,0.55c0,0.25-0.04,0.47-0.13,0.68c-0.09,0.21-0.22,0.39-0.39,0.54
				c-0.17,0.15-0.38,0.27-0.63,0.36c-0.25,0.09-0.54,0.13-0.87,0.13c-0.37,0-0.71-0.06-1.01-0.18c-0.3-0.12-0.56-0.28-0.77-0.47
				l0.22-0.36c0.03-0.05,0.06-0.08,0.1-0.11s0.09-0.04,0.15-0.04c0.06,0,0.13,0.02,0.2,0.07c0.07,0.05,0.16,0.1,0.26,0.16
				c0.1,0.06,0.22,0.11,0.36,0.16c0.14,0.05,0.32,0.07,0.54,0.07c0.18,0,0.34-0.02,0.48-0.07c0.14-0.05,0.25-0.11,0.34-0.19
				s0.16-0.17,0.2-0.28c0.04-0.11,0.07-0.22,0.07-0.34c0-0.15-0.04-0.27-0.12-0.37c-0.08-0.1-0.18-0.18-0.31-0.25
				c-0.13-0.07-0.28-0.13-0.45-0.18c-0.17-0.05-0.34-0.1-0.51-0.16c-0.17-0.06-0.34-0.12-0.51-0.19c-0.17-0.07-0.32-0.16-0.45-0.27
				c-0.13-0.11-0.23-0.24-0.31-0.4c-0.08-0.16-0.12-0.35-0.12-0.58c0-0.2,0.04-0.4,0.13-0.59c0.08-0.19,0.21-0.35,0.37-0.5
				c0.16-0.14,0.36-0.26,0.6-0.34c0.24-0.08,0.5-0.13,0.81-0.13c0.35,0,0.67,0.06,0.95,0.17c0.28,0.11,0.52,0.26,0.73,0.46
				L127.4,55.62z"/>
			<path class="st11" d="M132.43,60.08h-0.42c-0.09,0-0.17-0.01-0.22-0.04c-0.06-0.03-0.09-0.09-0.11-0.18l-0.11-0.5
				c-0.14,0.13-0.28,0.24-0.41,0.34c-0.13,0.1-0.27,0.18-0.42,0.25c-0.15,0.07-0.31,0.12-0.47,0.16c-0.17,0.04-0.35,0.05-0.56,0.05
				c-0.21,0-0.4-0.03-0.58-0.09c-0.18-0.06-0.34-0.15-0.47-0.26c-0.13-0.12-0.24-0.26-0.32-0.44c-0.08-0.18-0.12-0.39-0.12-0.63
				c0-0.21,0.06-0.42,0.17-0.61c0.12-0.2,0.3-0.37,0.56-0.52c0.26-0.15,0.6-0.28,1.02-0.37c0.42-0.1,0.93-0.15,1.54-0.15v-0.42
				c0-0.42-0.09-0.73-0.27-0.95s-0.44-0.32-0.79-0.32c-0.23,0-0.42,0.03-0.58,0.09c-0.16,0.06-0.29,0.12-0.41,0.2
				c-0.11,0.07-0.21,0.14-0.3,0.2c-0.08,0.06-0.16,0.09-0.25,0.09c-0.06,0-0.12-0.02-0.17-0.05s-0.09-0.07-0.11-0.12l-0.17-0.3
				c0.3-0.28,0.61-0.5,0.96-0.64c0.34-0.14,0.72-0.21,1.13-0.21c0.3,0,0.56,0.05,0.8,0.15c0.23,0.1,0.43,0.24,0.59,0.41
				c0.16,0.18,0.28,0.39,0.36,0.64c0.08,0.25,0.12,0.52,0.12,0.82V60.08z M129.99,59.51c0.17,0,0.32-0.02,0.45-0.05
				c0.14-0.03,0.27-0.08,0.39-0.14c0.12-0.06,0.24-0.14,0.35-0.22c0.11-0.09,0.22-0.19,0.32-0.3v-1.1c-0.43,0-0.8,0.03-1.1,0.08
				c-0.3,0.05-0.55,0.13-0.74,0.21c-0.19,0.09-0.33,0.19-0.41,0.31c-0.09,0.12-0.13,0.25-0.13,0.4c0,0.14,0.02,0.26,0.07,0.37
				c0.05,0.1,0.11,0.19,0.18,0.25c0.08,0.07,0.17,0.11,0.27,0.14C129.76,59.49,129.87,59.51,129.99,59.51z"/>
			<path class="st11" d="M133.45,60.08v-5.35h0.54c0.1,0,0.17,0.02,0.21,0.06c0.04,0.04,0.06,0.11,0.08,0.2l0.06,0.83
				c0.18-0.37,0.41-0.66,0.68-0.87c0.27-0.21,0.59-0.31,0.95-0.31c0.15,0,0.28,0.02,0.4,0.05c0.12,0.03,0.23,0.08,0.33,0.14
				l-0.12,0.7c-0.02,0.09-0.08,0.13-0.16,0.13c-0.05,0-0.12-0.02-0.23-0.05c-0.1-0.03-0.24-0.05-0.43-0.05
				c-0.33,0-0.6,0.1-0.82,0.28c-0.22,0.19-0.4,0.47-0.55,0.83v3.4H133.45z"/>
			<path class="st11" d="M137.29,60.08v-5.35h0.54c0.1,0,0.17,0.02,0.21,0.06c0.04,0.04,0.07,0.11,0.08,0.2l0.06,0.83
				c0.18-0.37,0.41-0.66,0.68-0.87c0.27-0.21,0.59-0.31,0.95-0.31c0.15,0,0.28,0.02,0.4,0.05c0.12,0.03,0.23,0.08,0.33,0.14
				l-0.12,0.7c-0.02,0.09-0.08,0.13-0.16,0.13c-0.05,0-0.13-0.02-0.23-0.05c-0.1-0.03-0.24-0.05-0.43-0.05
				c-0.33,0-0.6,0.1-0.82,0.28c-0.22,0.19-0.4,0.47-0.55,0.83v3.4H137.29z"/>
			<path class="st11" d="M143.3,54.65c0.39,0,0.74,0.07,1.06,0.2c0.31,0.13,0.58,0.31,0.8,0.55c0.22,0.24,0.39,0.53,0.51,0.87
				c0.12,0.34,0.18,0.72,0.18,1.14c0,0.42-0.06,0.8-0.18,1.14c-0.12,0.34-0.29,0.63-0.51,0.87c-0.22,0.24-0.49,0.42-0.8,0.55
				s-0.67,0.19-1.06,0.19c-0.39,0-0.74-0.06-1.06-0.19s-0.58-0.31-0.8-0.55c-0.22-0.24-0.39-0.53-0.51-0.87
				c-0.12-0.34-0.18-0.72-0.18-1.14c0-0.42,0.06-0.8,0.18-1.14c0.12-0.34,0.29-0.63,0.51-0.87c0.22-0.24,0.49-0.42,0.8-0.55
				C142.55,54.72,142.9,54.65,143.3,54.65z M143.3,59.42c0.53,0,0.92-0.18,1.18-0.53c0.26-0.35,0.39-0.85,0.39-1.48
				c0-0.64-0.13-1.13-0.39-1.49c-0.26-0.36-0.65-0.53-1.18-0.53c-0.27,0-0.5,0.05-0.7,0.14c-0.2,0.09-0.36,0.22-0.49,0.4
				c-0.13,0.17-0.23,0.38-0.3,0.64s-0.1,0.54-0.1,0.85c0,0.32,0.03,0.6,0.1,0.85c0.07,0.25,0.16,0.46,0.3,0.63
				c0.13,0.17,0.3,0.3,0.49,0.39C142.8,59.38,143.03,59.42,143.3,59.42z"/>
			<path class="st11" d="M147.63,52.31v7.78h-0.94v-7.78H147.63z"/>
			<path class="st11" d="M149.92,52.31v7.78h-0.94v-7.78H149.92z"/>
			<path class="st11" d="M155.1,60.08h-0.42c-0.09,0-0.17-0.01-0.22-0.04c-0.06-0.03-0.09-0.09-0.11-0.18l-0.11-0.5
				c-0.14,0.13-0.28,0.24-0.41,0.34c-0.13,0.1-0.27,0.18-0.42,0.25c-0.15,0.07-0.31,0.12-0.47,0.16c-0.17,0.04-0.35,0.05-0.56,0.05
				c-0.21,0-0.4-0.03-0.58-0.09c-0.18-0.06-0.34-0.15-0.47-0.26c-0.13-0.12-0.24-0.26-0.32-0.44c-0.08-0.18-0.12-0.39-0.12-0.63
				c0-0.21,0.06-0.42,0.17-0.61c0.12-0.2,0.3-0.37,0.56-0.52c0.26-0.15,0.6-0.28,1.02-0.37c0.42-0.1,0.93-0.15,1.54-0.15v-0.42
				c0-0.42-0.09-0.73-0.27-0.95c-0.18-0.21-0.44-0.32-0.79-0.32c-0.23,0-0.42,0.03-0.58,0.09c-0.16,0.06-0.29,0.12-0.41,0.2
				c-0.11,0.07-0.21,0.14-0.3,0.2c-0.08,0.06-0.16,0.09-0.25,0.09c-0.06,0-0.12-0.02-0.17-0.05c-0.05-0.03-0.09-0.07-0.11-0.12
				l-0.17-0.3c0.3-0.28,0.61-0.5,0.96-0.64c0.34-0.14,0.72-0.21,1.13-0.21c0.3,0,0.56,0.05,0.8,0.15c0.23,0.1,0.43,0.24,0.59,0.41
				c0.16,0.18,0.28,0.39,0.36,0.64c0.08,0.25,0.12,0.52,0.12,0.82V60.08z M152.66,59.51c0.17,0,0.32-0.02,0.45-0.05
				c0.14-0.03,0.27-0.08,0.39-0.14c0.12-0.06,0.24-0.14,0.35-0.22c0.11-0.09,0.22-0.19,0.32-0.3v-1.1c-0.43,0-0.8,0.03-1.1,0.08
				c-0.3,0.05-0.55,0.13-0.74,0.21c-0.19,0.09-0.33,0.19-0.41,0.31c-0.09,0.12-0.13,0.25-0.13,0.4c0,0.14,0.02,0.26,0.07,0.37
				c0.05,0.1,0.11,0.19,0.18,0.25c0.08,0.07,0.17,0.11,0.27,0.14C152.42,59.49,152.54,59.51,152.66,59.51z"/>
			<path class="st11" d="M159.87,60.08c-0.13,0-0.22-0.07-0.25-0.2l-0.08-0.65c-0.23,0.28-0.49,0.5-0.78,0.67
				c-0.29,0.17-0.63,0.25-1.01,0.25c-0.31,0-0.58-0.06-0.83-0.18c-0.25-0.12-0.46-0.29-0.64-0.52c-0.18-0.23-0.31-0.51-0.41-0.86
				c-0.1-0.34-0.14-0.73-0.14-1.18c0-0.39,0.05-0.76,0.16-1.1c0.11-0.34,0.26-0.63,0.46-0.88c0.2-0.25,0.44-0.45,0.73-0.59
				c0.28-0.14,0.61-0.21,0.97-0.21c0.33,0,0.61,0.06,0.84,0.17c0.23,0.11,0.44,0.27,0.62,0.47v-2.97h0.94v7.78H159.87z M158.05,59.4
				c0.31,0,0.57-0.07,0.81-0.21c0.23-0.14,0.44-0.34,0.64-0.6V56c-0.17-0.23-0.36-0.39-0.57-0.49c-0.21-0.09-0.43-0.14-0.68-0.14
				c-0.5,0-0.88,0.18-1.15,0.53s-0.4,0.86-0.4,1.52c0,0.35,0.03,0.65,0.09,0.89c0.06,0.25,0.15,0.45,0.26,0.61
				c0.12,0.16,0.26,0.28,0.43,0.35S157.84,59.4,158.05,59.4z"/>
			<path class="st11" d="M163.76,54.65c0.39,0,0.74,0.07,1.06,0.2c0.31,0.13,0.58,0.31,0.8,0.55c0.22,0.24,0.39,0.53,0.51,0.87
				s0.18,0.72,0.18,1.14c0,0.42-0.06,0.8-0.18,1.14c-0.12,0.34-0.29,0.63-0.51,0.87c-0.22,0.24-0.49,0.42-0.8,0.55
				s-0.67,0.19-1.06,0.19c-0.39,0-0.74-0.06-1.06-0.19c-0.31-0.13-0.58-0.31-0.8-0.55c-0.22-0.24-0.39-0.53-0.51-0.87
				c-0.12-0.34-0.18-0.72-0.18-1.14c0-0.42,0.06-0.8,0.18-1.14c0.12-0.34,0.29-0.63,0.51-0.87c0.22-0.24,0.49-0.42,0.8-0.55
				C163.02,54.72,163.37,54.65,163.76,54.65z M163.76,59.42c0.53,0,0.92-0.18,1.18-0.53c0.26-0.35,0.39-0.85,0.39-1.48
				c0-0.64-0.13-1.13-0.39-1.49c-0.26-0.36-0.65-0.53-1.18-0.53c-0.27,0-0.5,0.05-0.7,0.14c-0.2,0.09-0.36,0.22-0.49,0.4
				c-0.13,0.17-0.23,0.38-0.3,0.64c-0.07,0.25-0.1,0.54-0.1,0.85c0,0.32,0.03,0.6,0.1,0.85c0.06,0.25,0.16,0.46,0.3,0.63
				c0.13,0.17,0.3,0.3,0.49,0.39C163.26,59.38,163.5,59.42,163.76,59.42z"/>
			<path class="st11" d="M167.06,60.08v-5.35h0.54c0.1,0,0.17,0.02,0.21,0.06c0.04,0.04,0.06,0.11,0.08,0.2l0.06,0.83
				c0.18-0.37,0.41-0.66,0.68-0.87c0.27-0.21,0.59-0.31,0.95-0.31c0.15,0,0.28,0.02,0.4,0.05c0.12,0.03,0.23,0.08,0.33,0.14
				l-0.12,0.7c-0.02,0.09-0.08,0.13-0.16,0.13c-0.05,0-0.12-0.02-0.23-0.05c-0.1-0.03-0.24-0.05-0.43-0.05
				c-0.33,0-0.6,0.1-0.82,0.28c-0.22,0.19-0.4,0.47-0.55,0.83v3.4H167.06z"/>
			<path class="st11" d="M171.83,52.52h0.85c0.09,0,0.17,0.02,0.23,0.07c0.06,0.05,0.1,0.1,0.12,0.17l1.56,5.26
				c0.03,0.09,0.05,0.2,0.08,0.31c0.02,0.11,0.04,0.22,0.07,0.34c0.02-0.12,0.05-0.23,0.07-0.35c0.02-0.11,0.05-0.21,0.08-0.3
				l1.78-5.26c0.02-0.06,0.06-0.12,0.12-0.17c0.06-0.05,0.14-0.08,0.22-0.08h0.3c0.09,0,0.17,0.02,0.22,0.07
				c0.06,0.05,0.1,0.1,0.12,0.17l1.77,5.26c0.06,0.18,0.12,0.39,0.17,0.63c0.02-0.12,0.04-0.23,0.06-0.33
				c0.02-0.11,0.04-0.2,0.07-0.3l1.57-5.26c0.02-0.06,0.06-0.12,0.12-0.17c0.06-0.05,0.14-0.07,0.22-0.07h0.8l-2.36,7.56h-0.92
				l-1.92-5.77c-0.04-0.11-0.07-0.24-0.11-0.38c-0.02,0.07-0.03,0.14-0.05,0.2c-0.02,0.07-0.03,0.12-0.05,0.18l-1.93,5.77h-0.92
				L171.83,52.52z"/>
			<path class="st11" d="M184.82,54.65c0.32,0,0.62,0.05,0.89,0.16c0.27,0.11,0.5,0.26,0.7,0.46c0.2,0.2,0.35,0.45,0.46,0.75
				c0.11,0.3,0.17,0.64,0.17,1.02c0,0.15-0.02,0.25-0.05,0.3c-0.03,0.05-0.09,0.07-0.18,0.07h-3.56c0.01,0.34,0.05,0.63,0.14,0.88
				c0.08,0.25,0.2,0.46,0.35,0.63c0.15,0.17,0.32,0.29,0.53,0.37c0.2,0.08,0.43,0.12,0.69,0.12c0.24,0,0.44-0.03,0.61-0.08
				c0.17-0.05,0.32-0.11,0.44-0.18c0.12-0.06,0.23-0.12,0.31-0.18c0.08-0.05,0.15-0.08,0.21-0.08c0.08,0,0.14,0.03,0.18,0.09
				l0.26,0.34c-0.12,0.14-0.26,0.26-0.42,0.37s-0.34,0.19-0.52,0.26c-0.18,0.07-0.38,0.12-0.57,0.15c-0.2,0.03-0.39,0.05-0.59,0.05
				c-0.37,0-0.71-0.06-1.02-0.19c-0.31-0.12-0.58-0.31-0.81-0.55c-0.23-0.24-0.4-0.54-0.53-0.89c-0.13-0.36-0.19-0.76-0.19-1.22
				c0-0.37,0.06-0.72,0.17-1.05c0.11-0.32,0.28-0.6,0.49-0.84c0.21-0.24,0.48-0.42,0.79-0.56
				C184.08,54.72,184.43,54.65,184.82,54.65z M184.84,55.34c-0.45,0-0.81,0.13-1.07,0.39c-0.26,0.26-0.42,0.63-0.49,1.09h2.91
				c0-0.22-0.03-0.42-0.09-0.6c-0.06-0.18-0.15-0.34-0.26-0.47c-0.12-0.13-0.26-0.23-0.42-0.31
				C185.25,55.38,185.06,55.34,184.84,55.34z"/>
			<path class="st11" d="M187.86,60.08v-7.78h0.94v3.2c0.22-0.26,0.48-0.46,0.76-0.62c0.29-0.16,0.61-0.23,0.98-0.23
				c0.31,0,0.59,0.06,0.84,0.17c0.25,0.12,0.46,0.29,0.64,0.52c0.18,0.23,0.31,0.52,0.41,0.86c0.09,0.34,0.14,0.73,0.14,1.17
				c0,0.39-0.05,0.76-0.16,1.1c-0.11,0.34-0.26,0.63-0.46,0.88c-0.2,0.25-0.44,0.44-0.73,0.59c-0.29,0.14-0.61,0.21-0.97,0.21
				c-0.34,0-0.64-0.07-0.88-0.2c-0.24-0.13-0.45-0.32-0.63-0.56l-0.05,0.49c-0.03,0.13-0.11,0.2-0.24,0.2H187.86z M190.24,55.4
				c-0.31,0-0.57,0.07-0.8,0.21c-0.23,0.14-0.44,0.34-0.64,0.6v2.59c0.17,0.23,0.36,0.4,0.56,0.49c0.21,0.1,0.44,0.14,0.69,0.14
				c0.5,0,0.88-0.18,1.15-0.53s0.4-0.86,0.4-1.52c0-0.35-0.03-0.65-0.09-0.9c-0.06-0.25-0.15-0.45-0.27-0.61
				c-0.12-0.16-0.26-0.28-0.43-0.35C190.65,55.44,190.46,55.4,190.24,55.4z"/>
		</g>
		<g class="st16">
			<path class="st9" d="M92.95,43.31c0.13,0.28,0.25,0.57,0.36,0.86c0.12-0.3,0.24-0.59,0.37-0.88c0.13-0.28,0.26-0.56,0.4-0.82
				l3.82-7.53c0.07-0.13,0.14-0.23,0.21-0.3c0.07-0.07,0.15-0.12,0.24-0.16c0.09-0.03,0.19-0.05,0.3-0.05c0.11,0,0.24,0,0.39,0h2.64
				v14.89h-3.05v-8.57c0-0.42,0.02-0.87,0.06-1.35l-3.95,7.66c-0.12,0.24-0.29,0.42-0.5,0.54c-0.21,0.12-0.44,0.18-0.71,0.18h-0.47
				c-0.27,0-0.5-0.06-0.71-0.18c-0.21-0.12-0.37-0.3-0.5-0.54l-3.97-7.67c0.03,0.24,0.05,0.48,0.06,0.71
				c0.01,0.24,0.02,0.45,0.02,0.65v8.57h-3.05V34.43h2.64c0.15,0,0.28,0,0.39,0s0.21,0.02,0.3,0.05c0.09,0.03,0.17,0.09,0.24,0.16
				c0.07,0.07,0.14,0.17,0.21,0.3l3.83,7.56C92.69,42.76,92.82,43.03,92.95,43.31z"/>
			<path class="st9" d="M106.96,49.32h-3.48v-14.9h3.48V49.32z"/>
			<path class="st9" d="M115.77,46.82c0.48,0,0.9-0.04,1.27-0.12s0.72-0.19,1.04-0.33v-2.26h-1.47c-0.22,0-0.39-0.06-0.51-0.17
				c-0.12-0.12-0.18-0.26-0.18-0.44v-1.9h5.3v6.29c-0.38,0.28-0.78,0.52-1.19,0.72c-0.41,0.2-0.85,0.37-1.32,0.5
				c-0.47,0.13-0.96,0.22-1.49,0.29c-0.53,0.06-1.1,0.09-1.7,0.09c-1.09,0-2.1-0.19-3.03-0.58c-0.93-0.38-1.73-0.92-2.41-1.59
				c-0.68-0.68-1.21-1.48-1.59-2.41c-0.39-0.93-0.58-1.94-0.58-3.03c0-1.11,0.18-2.13,0.55-3.06c0.37-0.93,0.89-1.73,1.58-2.41
				c0.69-0.67,1.51-1.2,2.48-1.57c0.97-0.37,2.06-0.56,3.26-0.56c0.62,0,1.2,0.05,1.75,0.15c0.55,0.1,1.05,0.24,1.51,0.42
				c0.46,0.18,0.88,0.39,1.26,0.63c0.38,0.25,0.72,0.51,1.02,0.8l-1,1.52c-0.1,0.14-0.21,0.26-0.34,0.34
				c-0.13,0.08-0.28,0.12-0.43,0.12c-0.2,0-0.42-0.07-0.63-0.2c-0.27-0.16-0.53-0.3-0.77-0.42c-0.24-0.12-0.49-0.22-0.74-0.29
				c-0.25-0.07-0.52-0.13-0.8-0.16c-0.28-0.03-0.59-0.05-0.94-0.05c-0.65,0-1.23,0.11-1.75,0.34c-0.52,0.23-0.96,0.55-1.32,0.97
				c-0.36,0.42-0.65,0.92-0.84,1.5c-0.2,0.58-0.3,1.23-0.3,1.95c0,0.79,0.11,1.49,0.33,2.11c0.22,0.61,0.52,1.13,0.9,1.55
				c0.38,0.42,0.84,0.74,1.37,0.97C114.57,46.71,115.15,46.82,115.77,46.82z"/>
			<path class="st9" d="M128.55,46.59c0.46,0,0.88-0.08,1.24-0.23c0.36-0.15,0.67-0.37,0.93-0.66c0.25-0.29,0.44-0.64,0.58-1.05
				c0.13-0.41,0.2-0.88,0.2-1.41v-8.82h3.46v8.82c0,0.91-0.15,1.75-0.44,2.52c-0.3,0.76-0.72,1.42-1.27,1.97
				c-0.55,0.55-1.22,0.98-2.01,1.29c-0.79,0.31-1.68,0.46-2.67,0.46c-1,0-1.89-0.15-2.68-0.46c-0.79-0.31-1.46-0.74-2.01-1.29
				c-0.55-0.55-0.97-1.21-1.27-1.97c-0.29-0.76-0.44-1.6-0.44-2.52v-8.82h3.46v8.81c0,0.52,0.07,0.99,0.2,1.41
				c0.13,0.41,0.33,0.76,0.58,1.05c0.25,0.29,0.56,0.51,0.93,0.66C127.68,46.51,128.09,46.59,128.55,46.59z"/>
			<path class="st9" d="M145.83,34.42v2.66h-6.11v3.48h4.68v2.56h-4.68v3.55h6.11v2.66h-9.59v-14.9H145.83z"/>
			<path class="st9" d="M150.29,46.56h5.52v2.76h-8.98v-14.9h3.46V46.56z"/>
			<path class="st9" d="M162.93,44.34v4.98h-3.46v-14.9h5.26c1.05,0,1.95,0.12,2.7,0.37c0.75,0.25,1.37,0.59,1.86,1.03
				c0.49,0.44,0.85,0.95,1.08,1.54c0.23,0.59,0.35,1.23,0.35,1.92c0,0.74-0.12,1.42-0.36,2.04c-0.24,0.62-0.6,1.15-1.09,1.59
				c-0.49,0.44-1.11,0.79-1.87,1.04c-0.75,0.25-1.64,0.37-2.67,0.37H162.93z M162.93,41.73h1.8c0.9,0,1.55-0.21,1.94-0.64
				c0.4-0.43,0.59-1.03,0.59-1.8c0-0.34-0.05-0.65-0.15-0.93c-0.1-0.28-0.26-0.52-0.47-0.72c-0.21-0.2-0.47-0.36-0.79-0.47
				c-0.32-0.11-0.69-0.16-1.13-0.16h-1.8V41.73z"/>
			<path class="st9" d="M186.26,41.86c0,1.08-0.19,2.08-0.56,3.01c-0.37,0.93-0.89,1.73-1.57,2.42s-1.49,1.22-2.44,1.61
				c-0.95,0.39-2.01,0.58-3.16,0.58c-1.16,0-2.22-0.19-3.17-0.58c-0.95-0.39-1.77-0.93-2.45-1.61s-1.2-1.49-1.57-2.42
				c-0.37-0.93-0.56-1.93-0.56-3.01s0.19-2.08,0.56-3.01c0.37-0.93,0.9-1.73,1.57-2.41c0.68-0.68,1.49-1.22,2.45-1.61
				c0.95-0.39,2.01-0.58,3.17-0.58c1.16,0,2.21,0.2,3.16,0.59c0.95,0.39,1.76,0.93,2.44,1.61c0.67,0.68,1.2,1.49,1.57,2.41
				C186.07,39.79,186.26,40.79,186.26,41.86z M182.72,41.86c0-0.74-0.1-1.4-0.29-1.99c-0.19-0.59-0.47-1.09-0.82-1.5
				c-0.36-0.41-0.8-0.72-1.31-0.94c-0.52-0.22-1.11-0.33-1.77-0.33c-0.67,0-1.26,0.11-1.78,0.33c-0.52,0.22-0.96,0.53-1.32,0.94
				c-0.36,0.41-0.63,0.91-0.82,1.5c-0.19,0.59-0.29,1.25-0.29,1.99c0,0.74,0.1,1.41,0.29,2c0.19,0.59,0.47,1.09,0.82,1.5
				c0.36,0.41,0.8,0.72,1.32,0.94c0.52,0.21,1.12,0.32,1.78,0.32c0.66,0,1.25-0.11,1.77-0.32c0.52-0.21,0.96-0.53,1.31-0.94
				c0.36-0.41,0.63-0.91,0.82-1.5C182.62,43.27,182.72,42.61,182.72,41.86z"/>
			<path class="st9" d="M190.41,43.8v5.51h-3.46v-14.9h4.85c1.08,0,2,0.11,2.76,0.33c0.76,0.22,1.38,0.53,1.86,0.93
				c0.48,0.4,0.83,0.86,1.05,1.4c0.22,0.54,0.33,1.12,0.33,1.76c0,0.48-0.06,0.94-0.19,1.37c-0.13,0.43-0.32,0.83-0.58,1.19
				c-0.26,0.36-0.57,0.69-0.94,0.98c-0.37,0.29-0.8,0.52-1.28,0.71c0.23,0.12,0.45,0.26,0.65,0.43c0.2,0.17,0.38,0.38,0.53,0.62
				l3.17,5.18h-3.13c-0.58,0-1-0.22-1.25-0.65l-2.47-4.32c-0.11-0.19-0.24-0.33-0.38-0.41c-0.15-0.08-0.35-0.12-0.62-0.12H190.41z
				 M190.41,41.42h1.39c0.47,0,0.87-0.06,1.2-0.18c0.33-0.12,0.6-0.28,0.81-0.5c0.21-0.21,0.36-0.46,0.46-0.74
				c0.1-0.28,0.14-0.59,0.14-0.92c0-0.65-0.21-1.17-0.64-1.53c-0.43-0.37-1.09-0.55-1.98-0.55h-1.39V41.42z"/>
			<path class="st9" d="M203.04,43.8v5.51h-3.46v-14.9h4.85c1.08,0,2,0.11,2.76,0.33c0.76,0.22,1.38,0.53,1.86,0.93
				c0.48,0.4,0.83,0.86,1.05,1.4c0.22,0.54,0.33,1.12,0.33,1.76c0,0.48-0.06,0.94-0.19,1.37c-0.13,0.43-0.32,0.83-0.58,1.19
				c-0.26,0.36-0.57,0.69-0.94,0.98c-0.37,0.29-0.8,0.52-1.28,0.71c0.23,0.12,0.45,0.26,0.65,0.43c0.2,0.17,0.38,0.38,0.53,0.62
				l3.17,5.18h-3.13c-0.58,0-1-0.22-1.25-0.65l-2.47-4.32c-0.11-0.19-0.24-0.33-0.38-0.41c-0.15-0.08-0.35-0.12-0.62-0.12H203.04z
				 M203.04,41.42h1.39c0.47,0,0.87-0.06,1.2-0.18c0.33-0.12,0.6-0.28,0.81-0.5c0.21-0.21,0.36-0.46,0.46-0.74
				c0.1-0.28,0.14-0.59,0.14-0.92c0-0.65-0.21-1.17-0.64-1.53c-0.43-0.37-1.09-0.55-1.98-0.55h-1.39V41.42z"/>
			<path class="st9" d="M226.09,49.32h-2.68c-0.3,0-0.55-0.07-0.74-0.21c-0.19-0.14-0.33-0.32-0.4-0.54l-0.88-2.6h-5.66l-0.88,2.6
				c-0.07,0.19-0.2,0.36-0.4,0.52s-0.44,0.23-0.73,0.23h-2.7l5.77-14.9h3.54L226.09,49.32z M216.52,43.62h4.07l-1.37-4.08
				c-0.09-0.26-0.19-0.56-0.31-0.92c-0.12-0.35-0.24-0.73-0.35-1.14c-0.11,0.42-0.22,0.8-0.34,1.16c-0.12,0.35-0.22,0.66-0.33,0.92
				L216.52,43.62z"/>
			<path class="st9" d="M234.64,37.45c-0.1,0.16-0.21,0.29-0.32,0.37s-0.26,0.12-0.43,0.12c-0.16,0-0.33-0.05-0.51-0.15
				c-0.18-0.1-0.39-0.21-0.61-0.33c-0.23-0.12-0.49-0.23-0.78-0.33c-0.29-0.1-0.63-0.15-1-0.15c-0.65,0-1.13,0.14-1.45,0.41
				s-0.48,0.65-0.48,1.12c0,0.3,0.1,0.55,0.29,0.75c0.19,0.2,0.44,0.37,0.75,0.51c0.31,0.14,0.66,0.27,1.06,0.39
				c0.4,0.12,0.81,0.25,1.22,0.4c0.42,0.15,0.82,0.32,1.22,0.52c0.4,0.2,0.75,0.45,1.06,0.76c0.31,0.31,0.56,0.68,0.75,1.12
				c0.19,0.44,0.29,0.97,0.29,1.59c0,0.69-0.12,1.33-0.36,1.93c-0.24,0.6-0.58,1.12-1.04,1.57c-0.45,0.45-1.01,0.8-1.68,1.05
				c-0.66,0.26-1.42,0.38-2.26,0.38c-0.46,0-0.94-0.05-1.42-0.14c-0.48-0.1-0.95-0.23-1.4-0.4c-0.45-0.17-0.87-0.38-1.27-0.62
				c-0.4-0.24-0.74-0.5-1.03-0.8l1.02-1.62c0.07-0.12,0.18-0.22,0.32-0.3c0.14-0.07,0.28-0.11,0.44-0.11c0.2,0,0.41,0.06,0.62,0.19
				c0.21,0.13,0.44,0.27,0.71,0.43c0.26,0.16,0.56,0.3,0.9,0.43c0.34,0.13,0.74,0.19,1.21,0.19c0.63,0,1.11-0.14,1.46-0.41
				c0.35-0.28,0.52-0.71,0.52-1.31c0-0.35-0.1-0.63-0.29-0.85c-0.19-0.22-0.44-0.4-0.75-0.54c-0.31-0.14-0.66-0.27-1.06-0.38
				c-0.4-0.11-0.8-0.23-1.22-0.36c-0.42-0.13-0.82-0.3-1.22-0.49c-0.4-0.19-0.75-0.45-1.06-0.77c-0.31-0.32-0.56-0.71-0.75-1.19
				c-0.19-0.47-0.29-1.06-0.29-1.75c0-0.56,0.11-1.1,0.34-1.64c0.22-0.53,0.56-1.01,0.99-1.42c0.44-0.42,0.97-0.75,1.61-1
				c0.63-0.25,1.36-0.37,2.18-0.37c0.46,0,0.9,0.04,1.33,0.11c0.43,0.07,0.84,0.18,1.23,0.32c0.39,0.14,0.75,0.31,1.09,0.5
				c0.34,0.19,0.64,0.41,0.9,0.66L234.64,37.45z"/>
		</g>
	</g>
</g>
</svg>
